<svg version="1.1" id="Layer_1" xmlns="http://www.w3.org/2000/svg" xmlns:xlink="http://www.w3.org/1999/xlink" x="0px" y="0px"
	 width="100%" viewBox="0 0 1920 1080" enable-background="new 0 0 1920 1080" xml:space="preserve">
<path fill="#1B1B1B" opacity="1.000000" stroke="none" 
	d="
M1253.000000,1081.000000 
	C835.333435,1081.000000 418.166809,1081.000000 1.000168,1081.000000 
	C1.000112,721.000122 1.000112,361.000275 1.000056,1.000313 
	C640.999756,1.000209 1280.999512,1.000209 1920.999512,1.000104 
	C1920.999634,360.999664 1920.999634,720.999329 1920.999756,1080.999512 
	C1698.500000,1081.000000 1476.000000,1081.000000 1253.000000,1081.000000 
M1632.500000,51.000000 
	C1105.425781,51.000000 578.351562,51.000000 51.309753,51.000000 
	C51.309753,378.044861 51.309753,704.297119 51.309753,1030.603882 
	C657.987061,1030.603882 1264.354614,1030.603882 1870.690430,1030.603882 
	C1870.690430,703.955383 1870.690430,377.703064 1870.690430,51.000000 
	C1791.421021,51.000000 1712.460571,51.000000 1632.500000,51.000000 
z"/>
<path fill="#EC3646" opacity="1.000000" stroke="none" 
	d="
M1633.000000,51.000000 
	C1712.460571,51.000000 1791.421021,51.000000 1870.690430,51.000000 
	C1870.690430,377.703064 1870.690430,703.955383 1870.690430,1030.603882 
	C1264.354614,1030.603882 657.987061,1030.603882 51.309753,1030.603882 
	C51.309753,704.297119 51.309753,378.044861 51.309753,51.000000 
	C578.351562,51.000000 1105.425781,51.000000 1633.000000,51.000000 
M1861.502808,1021.859436 
	C1861.856934,1021.679138 1861.967163,1021.401917 1861.965210,1020.134521 
	C1861.976562,1019.301636 1861.998169,1018.468750 1861.998169,1017.635864 
	C1861.999756,700.248413 1862.000000,382.860962 1861.993164,65.473526 
	C1861.993042,63.977451 1861.888916,62.481373 1861.859497,60.497101 
	C1861.679077,60.143028 1861.401855,60.032883 1860.134521,60.034729 
	C1858.968262,60.023174 1857.801880,60.001495 1856.635620,60.001492 
	C1259.748535,60.000031 662.861450,59.999905 65.974396,60.006886 
	C64.311432,60.006905 62.648472,60.111115 60.497253,60.140541 
	C60.143070,60.320843 60.032871,60.598110 60.034725,61.865498 
	C60.023315,62.698399 60.001904,63.531303 60.001900,64.364204 
	C60.000324,381.751526 59.999977,699.138855 60.006924,1016.526184 
	C60.006958,1018.022278 60.111126,1019.518311 60.140491,1021.502686 
	C60.140491,1021.502686 60.483582,1021.851013 60.483582,1021.851013 
	C60.483582,1021.851013 60.972179,1021.833374 61.865372,1021.965332 
	C63.031704,1021.976868 64.198036,1021.998535 65.364365,1021.998535 
	C662.251465,1021.999939 1259.138550,1022.000183 1856.025635,1021.993103 
	C1857.688599,1021.993103 1859.351562,1021.888855 1861.502808,1021.859436 
z"/>
<path fill="#1B1B1B" opacity="1.000000" stroke="none" 
	d="
M60.985512,60.166664 
	C62.648472,60.111115 64.311432,60.006905 65.974396,60.006886 
	C662.861450,59.999905 1259.748535,60.000031 1856.635620,60.001492 
	C1857.801880,60.001495 1858.968262,60.023174 1860.708740,60.243603 
	C1861.457764,60.639015 1861.641235,60.816624 1861.833374,60.985294 
	C1861.888916,62.481373 1861.993042,63.977451 1861.993164,65.473526 
	C1862.000000,382.860962 1861.999756,700.248413 1861.998169,1017.635864 
	C1861.998169,1018.468750 1861.976562,1019.301636 1861.756348,1020.708740 
	C1861.361084,1021.457886 1861.183350,1021.641357 1861.014526,1021.833374 
	C1859.351562,1021.888855 1857.688599,1021.993103 1856.025635,1021.993103 
	C1259.138550,1022.000183 662.251465,1021.999939 65.364365,1021.998535 
	C64.198036,1021.998535 63.031704,1021.976868 61.291218,1021.756409 
	C60.542229,1021.360840 60.358761,1021.183167 60.166664,1021.014404 
	C60.111126,1019.518311 60.006958,1018.022278 60.006924,1016.526184 
	C59.999977,699.138855 60.000324,381.751526 60.001900,64.364204 
	C60.001904,63.531303 60.023315,62.698399 60.243622,61.291298 
	C60.639050,60.542210 60.816715,60.358730 60.985512,60.166664 
z"/>
<path fill="#1B1B1B" opacity="1.000000" stroke="none" 
	d="
M60.741383,60.153603 
	C60.816715,60.358730 60.639050,60.542210 60.309589,60.844723 
	C60.032871,60.598110 60.143070,60.320843 60.741383,60.153603 
z"/>
<path fill="#1B1B1B" opacity="1.000000" stroke="none" 
	d="
M1861.846436,60.741196 
	C1861.641235,60.816624 1861.457764,60.639015 1861.155273,60.309570 
	C1861.401855,60.032883 1861.679077,60.143028 1861.846436,60.741196 
z"/>
<path fill="#1B1B1B" opacity="1.000000" stroke="none" 
	d="
M60.153580,1021.258545 
	C60.358761,1021.183167 60.542229,1021.360840 60.844620,1021.690430 
	C60.972179,1021.833374 60.483582,1021.851013 60.483582,1021.851013 
	C60.483582,1021.851013 60.140491,1021.502686 60.153580,1021.258545 
z"/>
<path fill="#1B1B1B" opacity="1.000000" stroke="none" 
	d="
M1861.258667,1021.846436 
	C1861.183350,1021.641357 1861.361084,1021.457886 1861.690430,1021.155334 
	C1861.967163,1021.401917 1861.856934,1021.679138 1861.258667,1021.846436 
z"/>
</svg>